<svg width="141" height="92" viewBox="0 0 141 92" fill="none" xmlns="http://www.w3.org/2000/svg">
<path fill-rule="evenodd" clip-rule="evenodd" d="M61.2411 20.0186V22.0487H63.3149V23.0487H61.2411V25.0787H60.2411V23.0487H58.1677V22.0487H60.2411V20.0186H61.2411ZM104.432 51.0186V53.0487H106.504V54.0487H104.432V56.0787H103.432V54.0487H101.357V53.0487H103.432V51.0186H104.432ZM38.0236 57.5185L38.5236 57.0185H38.6284L39.1284 57.5185C39.1284 59.3512 39.8195 60.2313 40.4382 60.6722C40.76 60.9015 41.0834 61.0268 41.3266 61.0943C41.4477 61.1279 41.5468 61.1467 41.613 61.1568C41.646 61.1619 41.6705 61.1648 41.6852 61.1663L41.6995 61.1677L41.6984 61.1676L42.1677 61.6667V61.7693L41.6983 62.2678L41.6995 62.2683L41.6852 62.2696C41.6705 62.2711 41.646 62.274 41.613 62.2791C41.5468 62.2892 41.4477 62.308 41.3266 62.3416C41.0834 62.4092 40.76 62.5344 40.4382 62.7637C39.8195 63.2046 39.1284 64.0847 39.1284 65.9174L38.6284 66.4174H38.5236L38.0236 65.9174C38.0236 64.0847 37.3326 63.2046 36.7139 62.7637C36.3921 62.5344 36.0687 62.4092 35.8255 62.3416C35.7044 62.308 35.6053 62.2892 35.5391 62.2791C35.5061 62.274 35.4816 62.2711 35.4669 62.2696L35.4526 62.2683L35.4537 62.2683L34.9844 61.7693V61.6667L35.4538 61.1681L35.4526 61.1677L35.4669 61.1663C35.4816 61.1648 35.5061 61.1619 35.5391 61.1568C35.6053 61.1467 35.7044 61.1279 35.8255 61.0943C36.0687 61.0268 36.3921 60.9015 36.7139 60.6722C37.3326 60.2313 38.0236 59.3512 38.0236 57.5185ZM36.9262 61.718C37.0471 61.7846 37.1706 61.8612 37.2942 61.9493C37.783 62.2976 38.2506 62.8085 38.576 63.5437C38.9015 62.8085 39.3691 62.2976 39.8579 61.9493C39.9815 61.8612 40.105 61.7846 40.2258 61.718C40.105 61.6513 39.9815 61.5747 39.8579 61.4866C39.3691 61.1383 38.9015 60.6274 38.576 59.8922C38.2506 60.6274 37.783 61.1383 37.2942 61.4866C37.1706 61.5747 37.0471 61.6513 36.9262 61.718Z" fill="#B49B72"/>
<path fill-rule="evenodd" clip-rule="evenodd" d="M75.64 33.7387L95.536 36.3178C96.6756 36.4657 97.4822 37.507 97.3385 38.6487L93.248 70.167C93.0982 71.3129 92.0489 72.1219 90.903 71.9761L70.7363 69.36C70.186 69.2799 69.6911 68.9842 69.3584 68.5386L58.9825 70.2081C57.7423 70.4011 56.578 69.5571 56.3726 68.3189L51.3848 37.322C51.1918 36.0797 52.0357 34.9154 53.274 34.71L72.9807 31.5436C73.6316 31.4471 74.2908 31.6319 74.798 32.0488C75.3052 32.4676 75.6112 33.0816 75.64 33.7387ZM83.5725 48.1354C83.3877 48.0307 83.2316 47.8849 83.1125 47.7083C82.4575 46.9075 81.4491 46.4826 80.4182 46.5729C79.3894 46.6633 78.4695 47.2547 77.9623 48.1561L77.9644 48.154L78.5927 52.0679L82.8639 57.3636L88.5891 52.7393C91.7269 50.0554 87.9217 45.3572 84.6465 47.8685C84.3816 48.1786 83.9503 48.2854 83.5725 48.1354ZM57.9966 68.0622C58.0521 68.4072 58.3765 68.6413 58.7235 68.5879L78.4303 65.4132C78.7753 65.3557 79.0114 65.0313 78.956 64.6863L73.9681 33.6873C73.9106 33.3424 73.5862 33.1083 73.2412 33.1617L53.5344 36.3321C53.1895 36.3897 52.9554 36.7141 53.0088 37.0591L57.9966 68.0622ZM91.4513 70.2533C91.5478 70.1793 91.6074 70.0726 91.6217 69.9535L95.7096 38.443C95.7383 38.2027 95.5699 37.983 95.3297 37.9502L75.9105 35.4306L76.5676 39.5046L82.7527 39.3567C84.5927 39.1985 87.0674 40.0927 89.3113 40.9035L89.3113 40.9035C90.4452 41.3133 91.5202 41.7017 92.4246 41.9223C92.8188 42.0332 93.0714 42.4192 93.0139 42.8258C92.9584 43.2324 92.6094 43.5343 92.2007 43.5343C92.1227 43.5322 92.0467 43.5219 91.9728 43.5014L91.9748 43.5035L86.3276 41.4554C84.717 40.8718 81.8694 40.9874 79.4809 41.0844C78.4744 41.1252 77.5493 41.1628 76.8328 41.1433L77.6172 46.0182L77.6172 46.0181C77.6357 45.9997 77.6542 45.9812 77.6747 45.9648C79.5783 44.4411 82.3217 44.5869 84.0528 46.3036H84.0548C89.1557 43.1968 94.1722 50.123 89.6218 54.0143L83.2542 59.1582C83.0838 59.2958 82.8662 59.3594 82.6485 59.3369C82.4329 59.3143 82.2337 59.2054 82.0961 59.035L79.1145 55.3388L80.3856 63.2346C81.8194 63.6775 84.5735 63.5184 86.8917 63.3844C87.98 63.3215 88.9723 63.2641 89.6867 63.2772C90.1406 63.2669 90.5164 63.6284 90.5266 64.0822C90.5349 64.536 90.1755 64.9097 89.7217 64.92C89.0375 64.9099 88.0324 64.9659 86.9208 65.0278L86.92 65.0278L86.9199 65.0278C84.642 65.1547 81.9177 65.3065 80.593 64.9656C80.5108 66.0129 79.7264 66.8671 78.6894 67.0355V67.0334L72.8575 67.9719L91.1186 70.3416C91.2377 70.358 91.3568 70.3272 91.4513 70.2533ZM67.526 58.8885C67.2977 58.9242 67.0662 58.842 66.9178 58.6732L64.2081 55.5045L59.9656 56.1537C59.7357 56.1862 59.5058 56.101 59.3607 55.9306C59.214 55.7586 59.1732 55.5277 59.2531 55.3216H59.2548L60.7842 51.5052L58.0711 48.3381C57.9259 48.1645 57.8884 47.9321 57.9716 47.7276C58.0531 47.5215 58.2439 47.3712 58.4721 47.334H58.4738L62.7129 46.6848L64.2423 42.8684C64.3254 42.6623 64.5178 42.5135 64.7477 42.4779C64.9776 42.4423 65.2107 42.526 65.3575 42.6979L68.0706 45.8666L72.313 45.2174C72.5429 45.1818 72.7761 45.267 72.9228 45.4374C73.0696 45.6094 73.1087 45.8434 73.0255 46.0495L71.4961 49.8659L74.2092 53.033C74.356 53.205 74.3951 53.439 74.312 53.6451C74.2288 53.8527 74.0364 54.0015 73.8065 54.0371V54.0387L69.5641 54.6863L68.0331 58.5027C67.9483 58.7072 67.7559 58.8544 67.526 58.8885ZM65.6918 55.2782L67.2162 57.0586L68.0755 54.9141L65.6918 55.2782ZM62.2645 51.2774L64.7428 54.1672L68.6135 53.5785L70.0092 50.0937L67.5342 47.2039L63.6634 47.7958L62.2645 51.2774ZM70.9614 51.2047L70.1005 53.3476L72.4859 52.9835L70.9614 51.2047ZM70.5457 48.755L71.4049 46.6106L69.0212 46.9762L70.5457 48.755ZM66.5837 46.093L65.0592 44.3127L64.1999 46.4572L66.5837 46.093ZM62.1766 48.022L59.7928 48.3876L61.3157 50.1696L62.1766 48.022ZM61.7315 52.6145L60.8722 54.7589L63.2559 54.3948L61.7315 52.6145ZM62.7597 41.4229C64.2771 40.7777 67.4985 40.8005 70.0274 40.8184C71.0084 40.8254 71.8852 40.8316 72.5178 40.7977C72.9319 40.7937 73.2635 40.4287 73.2598 39.9831C73.2561 39.5374 72.9188 39.1805 72.5047 39.1845C71.815 39.2179 70.9226 39.212 69.9409 39.2056C67.3063 39.1884 64.0285 39.1669 62.2991 39.8883L56.219 42.0057C55.8461 42.159 55.6513 42.5986 55.7749 43.0059C55.8967 43.4133 56.2939 43.6472 56.6799 43.5383L62.7597 41.4229ZM69.0386 60.4407L74.5344 58.9253C74.9024 58.8244 75.2986 58.9991 75.416 59.317C75.5352 59.6333 75.3319 59.9737 74.9621 60.0747C74.7242 60.1403 74.4546 60.2147 74.1634 60.2951C72.5975 60.7274 70.4057 61.3324 69.1334 61.6805C67.5164 62.2137 64.5104 62.1908 62.0845 62.1724C61.1868 62.1655 60.3685 62.1593 59.7294 62.1821C59.3422 62.1836 59.0249 61.9155 59.0232 61.5826C59.0214 61.2497 59.3316 60.9785 59.7189 60.977V60.9755C60.3015 60.953 61.098 60.9595 61.9872 60.9668C64.3156 60.9858 67.2797 61.0101 68.7039 60.5326L69.0386 60.4407Z" fill="#B49B72"/>
<path d="M95.536 36.3178L95.5681 36.0699L95.5681 36.0699L95.536 36.3178ZM75.64 33.7387L75.3902 33.7497L75.3994 33.9597L75.6078 33.9867L75.64 33.7387ZM97.3385 38.6487L97.5864 38.6809L97.5865 38.6799L97.3385 38.6487ZM93.248 70.167L93.4959 70.1994L93.496 70.1992L93.248 70.167ZM90.903 71.9761L90.8709 72.224L90.8715 72.2241L90.903 71.9761ZM70.7363 69.36L70.7003 69.6074L70.7041 69.6079L70.7363 69.36ZM69.3584 68.5386L69.5588 68.3891L69.4682 68.2677L69.3187 68.2918L69.3584 68.5386ZM58.9825 70.2081L59.0209 70.4551L59.0222 70.4549L58.9825 70.2081ZM56.3726 68.3189L56.1258 68.3586L56.126 68.3598L56.3726 68.3189ZM51.3848 37.322L51.1377 37.3604L51.138 37.3618L51.3848 37.322ZM53.274 34.71L53.2343 34.4632L53.2331 34.4634L53.274 34.71ZM72.9807 31.5436L72.9441 31.2963L72.9411 31.2968L72.9807 31.5436ZM74.798 32.0488L74.9572 31.856L74.9568 31.8556L74.798 32.0488ZM83.1125 47.7083L83.3198 47.5685L83.3133 47.559L83.306 47.5501L83.1125 47.7083ZM83.5725 48.1354L83.4492 48.353L83.4643 48.3615L83.4803 48.3678L83.5725 48.1354ZM80.4182 46.5729L80.3964 46.3239L80.3964 46.3239L80.4182 46.5729ZM77.9623 48.1561L77.7444 48.0335L78.1391 48.3329L77.9623 48.1561ZM77.9644 48.154L78.2112 48.1144L78.1336 47.6312L77.7876 47.9773L77.9644 48.154ZM78.5927 52.0679L78.3459 52.1075L78.3564 52.1731L78.3981 52.2249L78.5927 52.0679ZM82.8639 57.3636L82.6693 57.5206L82.8263 57.7153L83.021 57.5581L82.8639 57.3636ZM88.5891 52.7393L88.7462 52.9338L88.7516 52.9292L88.5891 52.7393ZM84.6465 47.8685L84.4943 47.6701L84.4735 47.6861L84.4564 47.7061L84.6465 47.8685ZM58.7235 68.5879L58.7615 68.835L58.7633 68.8347L58.7235 68.5879ZM57.9966 68.0622L58.2434 68.0225L58.2434 68.0225L57.9966 68.0622ZM78.4303 65.4132L78.47 65.66L78.4714 65.6598L78.4303 65.4132ZM78.956 64.6863L79.2028 64.6466L79.2028 64.6466L78.956 64.6863ZM73.9681 33.6873L74.215 33.6476L74.2147 33.6462L73.9681 33.6873ZM73.2412 33.1617L73.203 32.9146L73.2015 32.9148L73.2412 33.1617ZM53.5344 36.3321L53.4947 36.0853L53.4933 36.0856L53.5344 36.3321ZM53.0088 37.0591L52.7617 37.0973L52.7619 37.0988L53.0088 37.0591ZM91.6217 69.9535L91.3738 69.9213L91.3735 69.9235L91.6217 69.9535ZM91.4513 70.2533L91.2993 70.0548L91.2972 70.0564L91.4513 70.2533ZM95.7096 38.443L95.9575 38.4751L95.9578 38.4727L95.7096 38.443ZM95.3297 37.9502L95.3635 37.7025L95.3618 37.7022L95.3297 37.9502ZM75.9105 35.4306L75.9426 35.1826L75.6103 35.1395L75.6636 35.4704L75.9105 35.4306ZM76.5676 39.5046L76.3207 39.5444L76.3555 39.7597L76.5735 39.7545L76.5676 39.5046ZM82.7527 39.3567L82.7587 39.6067L82.7664 39.6065L82.7741 39.6058L82.7527 39.3567ZM89.3113 40.9035L89.2263 41.1387L89.2322 41.1407L89.3113 40.9035ZM89.3113 40.9035L89.3963 40.6683L89.3904 40.6664L89.3113 40.9035ZM92.4246 41.9223L92.4923 41.6815L92.4838 41.6794L92.4246 41.9223ZM93.0139 42.8258L92.7664 42.7908L92.7662 42.792L93.0139 42.8258ZM92.2007 43.5343L92.1942 43.7843H92.2007V43.5343ZM91.9728 43.5014L92.0397 43.2605L91.1244 43.0063L91.796 43.6781L91.9728 43.5014ZM91.9748 43.5035L91.8896 43.7385L92.1517 43.3267L91.9748 43.5035ZM86.3276 41.4554L86.4129 41.2204L86.4128 41.2204L86.3276 41.4554ZM79.4809 41.0844L79.4708 40.8346L79.4708 40.8346L79.4809 41.0844ZM76.8328 41.1433L76.8396 40.8934L76.538 40.8852L76.5859 41.183L76.8328 41.1433ZM77.6172 46.0182L77.3704 46.0579L77.4481 46.5408L77.794 46.1949L77.6172 46.0182ZM77.6172 46.0181L77.4405 45.8413L77.4405 45.8413L77.6172 46.0181ZM77.6747 45.9648L77.8309 46.16L77.8309 46.16L77.6747 45.9648ZM84.0528 46.3036L83.8768 46.4811L83.9498 46.5536H84.0528V46.3036ZM84.0548 46.3036V46.5536H84.125L84.1849 46.5171L84.0548 46.3036ZM89.6218 54.0143L89.779 54.2089L89.7843 54.2043L89.6218 54.0143ZM83.2542 59.1582L83.4113 59.3527L83.4113 59.3527L83.2542 59.1582ZM82.6485 59.3369L82.6224 59.5855L82.6227 59.5855L82.6485 59.3369ZM82.0961 59.035L81.9015 59.192L81.9016 59.192L82.0961 59.035ZM79.1145 55.3388L79.3091 55.1819L78.7181 54.4492L78.8677 55.3786L79.1145 55.3388ZM80.3856 63.2346L80.1388 63.2743L80.1634 63.4276L80.3118 63.4734L80.3856 63.2346ZM86.8917 63.3844L86.8773 63.1348L86.8773 63.1348L86.8917 63.3844ZM89.6867 63.2772L89.6822 63.5274L89.6924 63.5272L89.6867 63.2772ZM90.5266 64.0822L90.7766 64.0776L90.7766 64.0765L90.5266 64.0822ZM89.7217 64.92L89.718 65.1701L89.7274 65.1699L89.7217 64.92ZM86.9208 65.0278L86.9347 65.2774L86.9347 65.2774L86.9208 65.0278ZM86.92 65.0278L86.9061 64.7778L86.8924 64.7793L86.92 65.0278ZM86.9199 65.0278L86.9338 65.2778L86.9475 65.2763L86.9199 65.0278ZM80.593 64.9656L80.6553 64.7235L80.367 64.6493L80.3437 64.9461L80.593 64.9656ZM78.6894 67.0355H78.4394V67.3294L78.7295 67.2823L78.6894 67.0355ZM78.6894 67.0334H78.9394V66.74L78.6497 66.7866L78.6894 67.0334ZM72.8575 67.9719L72.8178 67.7251L72.8253 68.2198L72.8575 67.9719ZM91.1186 70.3416L91.1528 70.0939L91.1508 70.0936L91.1186 70.3416ZM66.9178 58.6732L66.7278 58.8356L66.73 58.8382L66.9178 58.6732ZM67.526 58.8885L67.4893 58.6412L67.4874 58.6415L67.526 58.8885ZM64.2081 55.5045L64.3981 55.342L64.3077 55.2363L64.1703 55.2573L64.2081 55.5045ZM59.9656 56.1537L60.0007 56.4012L60.0034 56.4008L59.9656 56.1537ZM59.3607 55.9306L59.5511 55.7685L59.5509 55.7683L59.3607 55.9306ZM59.2531 55.3216V55.0716H59.0819L59.02 55.2312L59.2531 55.3216ZM59.2548 55.3216V55.5716H59.4239L59.4868 55.4146L59.2548 55.3216ZM60.7842 51.5052L61.0162 51.5982L61.0726 51.4576L60.974 51.3426L60.7842 51.5052ZM58.0711 48.3381L57.8793 48.4984L57.8812 48.5007L58.0711 48.3381ZM57.9716 47.7276L58.2032 47.8217L58.2041 47.8195L57.9716 47.7276ZM58.4721 47.334V47.084H58.4519L58.4319 47.0872L58.4721 47.334ZM58.4738 47.334V47.584H58.4928L58.5116 47.5811L58.4738 47.334ZM62.7129 46.6848L62.7507 46.9319L62.8918 46.9103L62.9449 46.7778L62.7129 46.6848ZM64.2423 42.8684L64.0104 42.7748L64.0102 42.7754L64.2423 42.8684ZM64.7477 42.4779L64.786 42.725L64.786 42.725L64.7477 42.4779ZM65.3575 42.6979L65.1673 42.8602L65.1676 42.8605L65.3575 42.6979ZM68.0706 45.8666L67.8807 46.0292L67.9711 46.1348L68.1084 46.1138L68.0706 45.8666ZM72.313 45.2174L72.3509 45.4645L72.3513 45.4645L72.313 45.2174ZM72.9228 45.4374L73.113 45.2752L73.1123 45.2743L72.9228 45.4374ZM73.0255 46.0495L72.7937 45.956L72.7935 45.9565L73.0255 46.0495ZM71.4961 49.8659L71.2641 49.7729L71.2077 49.9135L71.3063 50.0285L71.4961 49.8659ZM74.2092 53.033L74.3994 52.8708L74.3991 52.8704L74.2092 53.033ZM74.312 53.6451L74.0801 53.5515L74.0799 53.5521L74.312 53.6451ZM73.8065 54.0371L73.7682 53.7901L73.5565 53.8229V54.0371H73.8065ZM73.8065 54.0387L73.8443 54.2858L74.0565 54.2534V54.0387H73.8065ZM69.5641 54.6863L69.5264 54.4392L69.3852 54.4607L69.3321 54.5932L69.5641 54.6863ZM68.0331 58.5027L68.264 58.5984L68.2651 58.5958L68.0331 58.5027ZM67.2162 57.0586L67.0263 57.2212L67.2948 57.5347L67.4483 57.1516L67.2162 57.0586ZM65.6918 55.2782L65.654 55.0311L65.2092 55.099L65.5019 55.4408L65.6918 55.2782ZM68.0755 54.9141L68.3075 55.0071L68.4703 54.6009L68.0377 54.667L68.0755 54.9141ZM64.7428 54.1672L64.553 54.33L64.6433 54.4353L64.7804 54.4144L64.7428 54.1672ZM62.2645 51.2774L62.0325 51.1842L61.9759 51.325L62.0747 51.4402L62.2645 51.2774ZM68.6135 53.5785L68.6511 53.8256L68.7924 53.8041L68.8456 53.6714L68.6135 53.5785ZM70.0092 50.0937L70.2413 50.1866L70.2976 50.0461L70.1991 49.931L70.0092 50.0937ZM67.5342 47.2039L67.724 47.0412L67.6337 46.9357L67.4964 46.9567L67.5342 47.2039ZM63.6634 47.7958L63.6256 47.5487L63.4846 47.5702L63.4315 47.7026L63.6634 47.7958ZM70.1005 53.3476L69.8686 53.2544L69.7053 53.6608L70.1383 53.5947L70.1005 53.3476ZM70.9614 51.2047L71.1513 51.042L70.8831 50.7291L70.7294 51.1115L70.9614 51.2047ZM72.4859 52.9835L72.5236 53.2306L72.9687 53.1627L72.6757 52.8208L72.4859 52.9835ZM71.4049 46.6106L71.637 46.7036L71.7999 46.2971L71.367 46.3635L71.4049 46.6106ZM70.5457 48.755L70.3558 48.9177L70.6243 49.231L70.7777 48.848L70.5457 48.755ZM69.0212 46.9762L68.9833 46.7291L68.5386 46.7973L68.8314 47.1389L69.0212 46.9762ZM65.0592 44.3127L65.2491 44.1501L64.9806 43.8366L64.8271 44.2197L65.0592 44.3127ZM66.5837 46.093L66.6214 46.3402L67.0662 46.2722L66.7735 45.9304L66.5837 46.093ZM64.1999 46.4572L63.9679 46.3642L63.8051 46.7704L64.2377 46.7043L64.1999 46.4572ZM59.7928 48.3876L59.7549 48.1405L59.311 48.2086L59.6028 48.5501L59.7928 48.3876ZM62.1766 48.022L62.4086 48.115L62.5716 47.7084L62.1387 47.7749L62.1766 48.022ZM61.3157 50.1696L61.1256 50.332L61.394 50.646L61.5477 50.2626L61.3157 50.1696ZM60.8722 54.7589L60.6401 54.6659L60.4774 55.0721L60.9099 55.0061L60.8722 54.7589ZM61.7315 52.6145L61.9214 52.4519L61.6529 52.1383L61.4994 52.5215L61.7315 52.6145ZM63.2559 54.3948L63.2937 54.6419L63.7385 54.574L63.4458 54.2322L63.2559 54.3948ZM70.0274 40.8184L70.0256 41.0684L70.0256 41.0684L70.0274 40.8184ZM62.7597 41.4229L62.8419 41.659L62.8498 41.6562L62.8575 41.6529L62.7597 41.4229ZM72.5178 40.7977L72.5154 40.5475L72.5045 40.5481L72.5178 40.7977ZM73.2598 39.9831L73.5098 39.981L73.5098 39.981L73.2598 39.9831ZM72.5047 39.1845L72.5023 38.9343L72.4926 38.9348L72.5047 39.1845ZM69.9409 39.2056L69.9425 38.9556L69.9425 38.9556L69.9409 39.2056ZM62.2991 39.8883L62.3813 40.1244L62.3884 40.1219L62.3953 40.119L62.2991 39.8883ZM56.219 42.0057L56.1366 41.7693L56.1239 41.7745L56.219 42.0057ZM55.7749 43.0059L56.0144 42.9343L56.0141 42.9333L55.7749 43.0059ZM56.6799 43.5383L56.7478 43.7789L56.755 43.7768L56.762 43.7744L56.6799 43.5383ZM74.5344 58.9253L74.4683 58.6842L74.468 58.6843L74.5344 58.9253ZM69.0386 60.4407L69.1048 60.6818L69.105 60.6817L69.0386 60.4407ZM75.416 59.317L75.1815 59.4036L75.1821 59.4051L75.416 59.317ZM74.9621 60.0747L74.8963 59.8335L74.8956 59.8337L74.9621 60.0747ZM74.1634 60.2951L74.0969 60.0541L74.0969 60.0541L74.1634 60.2951ZM69.1334 61.6805L69.0673 61.439L69.0551 61.443L69.1334 61.6805ZM62.0845 62.1724L62.0864 61.9224L62.0845 62.1724ZM59.7294 62.1821L59.7304 62.4322L59.7384 62.4319L59.7294 62.1821ZM59.0232 61.5826L58.7732 61.5839L58.7732 61.5839L59.0232 61.5826ZM59.7189 60.977L59.7199 61.227L59.9689 61.226V60.977H59.7189ZM59.7189 60.9755L59.7093 60.7257L59.4689 60.735V60.9755H59.7189ZM61.9872 60.9668L61.9893 60.7168L61.9893 60.7168L61.9872 60.9668ZM68.7039 60.5326L68.6376 60.2912L68.6244 60.2956L68.7039 60.5326ZM95.5681 36.0699L75.6721 33.4908L75.6078 33.9867L95.5038 36.5658L95.5681 36.0699ZM97.5865 38.6799C97.7475 37.4015 96.8443 36.2355 95.5681 36.0699L95.5038 36.5658C96.507 36.6959 97.217 37.6125 97.0904 38.6175L97.5865 38.6799ZM93.496 70.1992L97.5864 38.6809L97.0906 38.6165L93.0001 70.1348L93.496 70.1992ZM90.8715 72.2241C92.1539 72.3873 93.3282 71.4819 93.4959 70.1994L93.0002 70.1346C92.8681 71.1438 91.9438 71.8565 90.9346 71.7281L90.8715 72.2241ZM70.7041 69.6079L90.8709 72.224L90.9352 71.7282L70.7684 69.1121L70.7041 69.6079ZM69.1581 68.6882C69.5302 69.1866 70.0841 69.5177 70.7003 69.6074L70.7723 69.1126C70.2878 69.0421 69.852 68.7818 69.5588 68.3891L69.1581 68.6882ZM59.0222 70.4549L69.3981 68.7854L69.3187 68.2918L58.9428 69.9613L59.0222 70.4549ZM56.126 68.3598C56.3537 69.733 57.6449 70.6692 59.0209 70.4551L58.9441 69.9611C57.8396 70.1329 56.8022 69.3813 56.6192 68.278L56.126 68.3598ZM51.138 37.3618L56.1258 68.3586L56.6194 68.2792L51.6316 37.2823L51.138 37.3618ZM53.2331 34.4634C51.8597 34.6911 50.9237 35.9825 51.1377 37.3604L51.6318 37.2837C51.4599 36.1769 52.2117 35.1396 53.3149 34.9567L53.2331 34.4634ZM72.9411 31.2968L53.2343 34.4632L53.3136 34.9569L73.0204 31.7905L72.9411 31.2968ZM74.9568 31.8556C74.3954 31.3943 73.6653 31.1894 72.9441 31.2963L73.0174 31.7909C73.598 31.7049 74.1863 31.8696 74.6393 32.2419L74.9568 31.8556ZM75.8897 33.7278C75.8579 33 75.519 32.3199 74.9572 31.856L74.6388 32.2416C75.0915 32.6154 75.3645 33.1633 75.3902 33.7497L75.8897 33.7278ZM82.9053 47.8481C83.0455 48.056 83.23 48.2287 83.4492 48.353L83.6958 47.9179C83.5454 47.8327 83.4178 47.7138 83.3198 47.5685L82.9053 47.8481ZM80.4401 46.822C81.3885 46.7388 82.3163 47.1298 82.919 47.8666L83.306 47.5501C82.5986 46.6852 81.5096 46.2263 80.3964 46.3239L80.4401 46.822ZM78.1802 48.2787C78.6468 47.4494 79.4932 46.9051 80.4401 46.8219L80.3964 46.3239C79.2856 46.4214 78.2922 47.0599 77.7444 48.0335L78.1802 48.2787ZM77.7876 47.9773L77.7855 47.9793L78.1391 48.3329L78.1411 48.3308L77.7876 47.9773ZM78.8395 52.0283L78.2112 48.1144L77.7175 48.1937L78.3459 52.1075L78.8395 52.0283ZM83.0585 57.2067L78.7873 51.911L78.3981 52.2249L82.6693 57.5206L83.0585 57.2067ZM88.432 52.5448L82.7068 57.1692L83.021 57.5581L88.7462 52.9337L88.432 52.5448ZM84.7986 48.0669C87.8138 45.7549 91.3201 50.0744 88.4266 52.5493L88.7516 52.9292C92.1336 50.0365 88.0296 44.9594 84.4943 47.6701L84.7986 48.0669ZM83.4803 48.3678C83.9576 48.5572 84.5023 48.4221 84.8365 48.0309L84.4564 47.7061C84.2609 47.935 83.943 48.0135 83.6647 47.9031L83.4803 48.3678ZM58.6855 68.3408C58.4726 68.3736 58.2768 68.2302 58.2434 68.0225L57.7498 68.1019C57.8273 68.5842 58.2803 68.909 58.7615 68.835L58.6855 68.3408ZM78.3905 65.1664L58.6837 68.3411L58.7633 68.8347L78.47 65.66L78.3905 65.1664ZM78.7091 64.726C78.7425 64.9333 78.6003 65.1314 78.3892 65.1666L78.4714 65.6598C78.9502 65.58 79.2803 65.1292 79.2028 64.6466L78.7091 64.726ZM73.7213 33.7271L78.7091 64.726L79.2028 64.6466L74.215 33.6476L73.7213 33.7271ZM73.2794 33.4087C73.4892 33.3762 73.6866 33.5187 73.7215 33.7284L74.2147 33.6462C74.1347 33.1661 73.6832 32.8403 73.203 32.9146L73.2794 33.4087ZM53.5742 36.579L73.2809 33.4085L73.2015 32.9148L53.4947 36.0853L53.5742 36.579ZM53.2558 37.0208C53.2234 36.8111 53.3658 36.6137 53.5756 36.5787L53.4933 36.0856C53.0132 36.1656 52.6874 36.6171 52.7617 37.0973L53.2558 37.0208ZM58.2434 68.0225L53.2556 37.0194L52.7619 37.0988L57.7498 68.1019L58.2434 68.0225ZM91.3735 69.9235C91.3671 69.9772 91.3413 70.0227 91.2993 70.0548L91.6033 70.4517C91.7544 70.336 91.8477 70.1679 91.8699 69.9834L91.3735 69.9235ZM95.4616 38.4108L91.3738 69.9213L91.8697 69.9856L95.9575 38.4751L95.4616 38.4108ZM95.2958 38.1978C95.3999 38.2121 95.474 38.3075 95.4613 38.4133L95.9578 38.4727C96.0026 38.0979 95.7399 37.7539 95.3635 37.7025L95.2958 38.1978ZM75.8783 35.6785L95.2975 38.1981L95.3618 37.7022L75.9426 35.1826L75.8783 35.6785ZM76.8144 39.4648L76.1573 35.3908L75.6636 35.4704L76.3207 39.5444L76.8144 39.4648ZM82.7468 39.1068L76.5616 39.2547L76.5735 39.7545L82.7587 39.6067L82.7468 39.1068ZM89.3962 40.6684C88.2763 40.2637 87.0867 39.8337 85.9458 39.5254C84.8076 39.2178 83.6952 39.0248 82.7313 39.1077L82.7741 39.6058C83.6503 39.5305 84.6952 39.7054 85.8153 40.0081C86.9327 40.31 88.1024 40.7325 89.2263 41.1386L89.3962 40.6684ZM89.3904 40.6664L89.3903 40.6663L89.2322 41.1407L89.2323 41.1407L89.3904 40.6664ZM92.4838 41.6794C91.5953 41.4627 90.5344 41.0796 89.3963 40.6684L89.2264 41.1387C90.3561 41.5469 91.4451 41.9407 92.3653 42.1651L92.4838 41.6794ZM93.2614 42.8608C93.3365 42.3301 93.0069 41.8264 92.4923 41.6816L92.3569 42.1629C92.6308 42.24 92.8063 42.5083 92.7664 42.7908L93.2614 42.8608ZM92.2007 43.7843C92.7335 43.7843 93.1891 43.391 93.2616 42.8596L92.7662 42.792C92.7278 43.0739 92.4853 43.2843 92.2007 43.2843V43.7843ZM91.9059 43.7423C92.0019 43.769 92.0984 43.7817 92.1942 43.7842L92.2073 43.2844C92.147 43.2828 92.0916 43.2749 92.0397 43.2605L91.9059 43.7423ZM92.1517 43.3267L92.1496 43.3247L91.796 43.6781L91.798 43.6802L92.1517 43.3267ZM86.2424 41.6905L91.8896 43.7385L92.0601 43.2684L86.4129 41.2204L86.2424 41.6905ZM79.4911 41.3342C80.687 41.2856 81.9875 41.2329 83.1894 41.2646C84.3967 41.2964 85.4772 41.4132 86.2425 41.6905L86.4128 41.2204C85.5675 40.9141 84.4189 40.7968 83.2026 40.7648C81.9809 40.7326 80.6633 40.7862 79.4708 40.8346L79.4911 41.3342ZM76.826 41.3932C77.5529 41.413 78.4876 41.3749 79.4911 41.3342L79.4708 40.8346C78.4611 40.8756 77.5457 40.9126 76.8396 40.8934L76.826 41.3932ZM77.864 45.9785L77.0796 41.1036L76.5859 41.183L77.3704 46.0579L77.864 45.9785ZM77.4405 45.8413L77.4404 45.8414L77.794 46.1949L77.794 46.1949L77.4405 45.8413ZM77.5185 45.7696C77.4854 45.796 77.4574 45.8245 77.4405 45.8413L77.794 46.1949C77.8141 46.1749 77.8229 46.1663 77.8309 46.16L77.5185 45.7696ZM84.2288 46.1261C82.4076 44.32 79.5213 44.1666 77.5185 45.7696L77.8309 46.16C79.6354 44.7156 82.2359 44.8539 83.8768 46.4811L84.2288 46.1261ZM84.0548 46.0536H84.0528V46.5536H84.0548V46.0536ZM89.7843 54.2043C94.5646 50.1164 89.2927 42.8206 83.9248 46.0901L84.1849 46.5171C89.0186 43.573 93.7798 50.1297 89.4593 53.8243L89.7843 54.2043ZM83.4113 59.3527L89.7789 54.2088L89.4647 53.8198L83.0971 58.9637L83.4113 59.3527ZM82.6227 59.5855C82.9054 59.6149 83.189 59.5322 83.4113 59.3527L83.0972 58.9637C82.9787 59.0594 82.8269 59.104 82.6743 59.0882L82.6227 59.5855ZM81.9016 59.192C82.0804 59.4136 82.34 59.5559 82.6224 59.5855L82.6745 59.0882C82.5258 59.0726 82.3869 58.9973 82.2906 58.878L81.9016 59.192ZM78.9199 55.4958L81.9015 59.192L82.2907 58.878L79.3091 55.1819L78.9199 55.4958ZM80.6324 63.1948L79.3613 55.2991L78.8677 55.3786L80.1388 63.2743L80.6324 63.1948ZM86.8773 63.1348C85.7167 63.2019 84.4559 63.2747 83.3067 63.2758C82.1509 63.277 81.1371 63.2051 80.4594 62.9957L80.3118 63.4734C81.0678 63.707 82.148 63.777 83.3072 63.7758C84.4732 63.7746 85.7485 63.7009 86.9061 63.634L86.8773 63.1348ZM89.6913 63.0273C88.9651 63.0139 87.9616 63.0721 86.8773 63.1348L86.9061 63.634C87.9985 63.5708 88.9795 63.5143 89.6822 63.5272L89.6913 63.0273ZM90.7766 64.0765C90.7632 63.4856 90.2739 63.0138 89.6811 63.0273L89.6924 63.5272C90.0073 63.52 90.2695 63.7711 90.2767 64.0878L90.7766 64.0765ZM89.7274 65.1699C90.3185 65.1566 90.7873 64.6693 90.7766 64.0776L90.2767 64.0867C90.2824 64.4027 90.0325 64.6629 89.716 64.6701L89.7274 65.1699ZM86.9347 65.2774C88.0503 65.2153 89.0448 65.16 89.718 65.17L89.7254 64.67C89.0302 64.6598 88.0144 64.7165 86.9069 64.7782L86.9347 65.2774ZM86.9339 65.2774L86.9347 65.2774L86.907 64.7782L86.9061 64.7782L86.9339 65.2774ZM86.9475 65.2763L86.9476 65.2763L86.8924 64.7793L86.8923 64.7794L86.9475 65.2763ZM80.5307 65.2077C81.2283 65.3872 82.2704 65.4333 83.4015 65.4221C84.5397 65.4108 85.7961 65.3408 86.9338 65.2774L86.906 64.7782C85.7658 64.8417 84.5212 64.911 83.3965 64.9221C82.2648 64.9333 81.2824 64.8849 80.6553 64.7235L80.5307 65.2077ZM78.7295 67.2823C79.8806 67.0954 80.751 66.147 80.8422 64.9852L80.3437 64.9461C80.2706 65.8787 79.5723 66.6389 78.6494 66.7887L78.7295 67.2823ZM78.4394 67.0334V67.0355H78.9394V67.0334H78.4394ZM72.8972 68.2187L78.7291 67.2803L78.6497 66.7866L72.8178 67.7251L72.8972 68.2187ZM91.1508 70.0936L72.8897 67.724L72.8253 68.2198L91.0865 70.5895L91.1508 70.0936ZM91.2972 70.0564C91.2577 70.0873 91.2069 70.1014 91.1528 70.0939L91.0845 70.5892C91.2686 70.6146 91.456 70.567 91.6054 70.4501L91.2972 70.0564ZM66.73 58.8382C66.9366 59.0733 67.2545 59.184 67.5646 59.1355L67.4874 58.6415C67.341 58.6644 67.1958 58.6108 67.1057 58.5082L66.73 58.8382ZM64.0181 55.6669L66.7278 58.8356L67.1078 58.5107L64.3981 55.342L64.0181 55.6669ZM60.0034 56.4008L64.2459 55.7516L64.1703 55.2573L59.9278 55.9066L60.0034 56.4008ZM59.1704 56.0926C59.3731 56.3308 59.6892 56.4453 60.0007 56.4012L59.9306 55.9062C59.7822 55.9271 59.6386 55.8712 59.5511 55.7685L59.1704 56.0926ZM59.02 55.2312C58.906 55.5254 58.9658 55.8529 59.1705 56.0928L59.5509 55.7683C59.4622 55.6643 59.4405 55.53 59.4862 55.412L59.02 55.2312ZM59.2548 55.0716H59.2531V55.5716H59.2548V55.0716ZM60.5521 51.4122L59.0227 55.2286L59.4868 55.4146L61.0162 51.5982L60.5521 51.4122ZM57.8812 48.5007L60.5943 51.6679L60.974 51.3426L58.2609 48.1754L57.8812 48.5007ZM57.74 47.6334C57.6212 47.9257 57.6763 48.2557 57.8793 48.4984L58.2628 48.1777C58.1756 48.0733 58.1557 47.9384 58.2032 47.8217L57.74 47.6334ZM58.4319 47.0872C58.1211 47.1379 57.8546 47.3437 57.7391 47.6356L58.2041 47.8195C58.2516 47.6992 58.3667 47.6045 58.5123 47.5807L58.4319 47.0872ZM58.4738 47.084H58.4721V47.584H58.4738V47.084ZM62.675 46.4376L58.4359 47.0869L58.5116 47.5811L62.7507 46.9319L62.675 46.4376ZM64.0102 42.7754L62.4808 46.5918L62.9449 46.7778L64.4743 42.9614L64.0102 42.7754ZM64.7094 42.2309C64.3973 42.2792 64.1283 42.4826 64.0104 42.7748L64.4741 42.9619C64.5225 42.842 64.6383 42.7479 64.786 42.725L64.7094 42.2309ZM65.5477 42.5357C65.3423 42.295 65.0214 42.1825 64.7094 42.2309L64.786 42.725C64.9338 42.7021 65.0792 42.7569 65.1673 42.8602L65.5477 42.5357ZM68.2605 45.704L65.5474 42.5353L65.1676 42.8605L67.8807 46.0292L68.2605 45.704ZM72.2752 44.9703L68.0328 45.6195L68.1084 46.1138L72.3509 45.4645L72.2752 44.9703ZM73.1123 45.2743C72.9078 45.0368 72.5878 44.9218 72.2747 44.9704L72.3513 45.4645C72.498 45.4417 72.6444 45.4972 72.7334 45.6006L73.1123 45.2743ZM73.2574 46.143C73.3761 45.8489 73.319 45.5166 73.113 45.2752L72.7326 45.5997C72.8201 45.7022 72.8413 45.8379 72.7937 45.956L73.2574 46.143ZM71.7282 49.9589L73.2576 46.1425L72.7935 45.9565L71.2641 49.7729L71.7282 49.9589ZM74.3991 52.8704L71.686 49.7032L71.3063 50.0285L74.0194 53.1957L74.3991 52.8704ZM74.5438 53.7386C74.6625 53.4445 74.6054 53.1122 74.3994 52.8708L74.0191 53.1953C74.1065 53.2978 74.1277 53.4335 74.0801 53.5515L74.5438 53.7386ZM73.8448 54.2842C74.1572 54.2357 74.4263 54.0321 74.544 53.738L74.0799 53.5521C74.0313 53.6734 73.9157 53.7672 73.7682 53.7901L73.8448 54.2842ZM74.0565 54.0387V54.0371H73.5565V54.0387H74.0565ZM69.6018 54.9335L73.8443 54.2858L73.7688 53.7915L69.5264 54.4392L69.6018 54.9335ZM68.2651 58.5958L69.7961 54.7794L69.3321 54.5932L67.801 58.4096L68.2651 58.5958ZM67.5627 59.1358C67.8751 59.0895 68.1439 58.8881 68.264 58.5984L67.8021 58.407C67.7526 58.5264 67.6367 58.6194 67.4893 58.6412L67.5627 59.1358ZM67.4061 56.896L65.8816 55.1156L65.5019 55.4408L67.0263 57.2212L67.4061 56.896ZM67.8434 54.8211L66.9842 56.9656L67.4483 57.1516L68.3075 55.0071L67.8434 54.8211ZM65.7295 55.5254L68.1132 55.1612L68.0377 54.667L65.654 55.0311L65.7295 55.5254ZM64.9326 54.0045L62.4542 51.1147L62.0747 51.4402L64.553 54.33L64.9326 54.0045ZM68.5759 53.3313L64.7052 53.9201L64.7804 54.4144L68.6511 53.8256L68.5759 53.3313ZM69.7771 50.0007L68.3814 53.4855L68.8456 53.6714L70.2413 50.1866L69.7771 50.0007ZM67.3443 47.3665L69.8193 50.2563L70.1991 49.931L67.724 47.0412L67.3443 47.3665ZM63.7012 48.0429L67.5719 47.451L67.4964 46.9567L63.6256 47.5487L63.7012 48.0429ZM62.4965 51.3707L63.8954 47.889L63.4315 47.7026L62.0325 51.1842L62.4965 51.3707ZM70.3325 53.4408L71.1934 51.2979L70.7294 51.1115L69.8686 53.2544L70.3325 53.4408ZM72.4482 52.7363L70.0628 53.1004L70.1383 53.5947L72.5236 53.2306L72.4482 52.7363ZM70.7716 51.3673L72.2961 53.1462L72.6757 52.8208L71.1513 51.042L70.7716 51.3673ZM71.1729 46.5176L70.3136 48.6621L70.7777 48.848L71.637 46.7036L71.1729 46.5176ZM69.0591 47.2233L71.4428 46.8577L71.367 46.3635L68.9833 46.7291L69.0591 47.2233ZM70.7355 48.5924L69.211 46.8135L68.8314 47.1389L70.3558 48.9177L70.7355 48.5924ZM64.8693 44.4753L66.3938 46.2556L66.7735 45.9304L65.2491 44.1501L64.8693 44.4753ZM64.432 46.5502L65.2912 44.4057L64.8271 44.2197L63.9679 46.3642L64.432 46.5502ZM66.5459 45.8459L64.1622 46.21L64.2377 46.7043L66.6214 46.3402L66.5459 45.8459ZM59.8308 48.6348L62.2145 48.2691L62.1387 47.7749L59.7549 48.1405L59.8308 48.6348ZM61.5057 50.0071L59.9829 48.2252L59.6028 48.5501L61.1256 50.332L61.5057 50.0071ZM61.9445 47.9289L61.0836 50.0765L61.5477 50.2626L62.4086 48.115L61.9445 47.9289ZM61.1043 54.8519L61.9635 52.7074L61.4994 52.5215L60.6401 54.6659L61.1043 54.8519ZM63.2182 54.1477L60.8345 54.5118L60.9099 55.0061L63.2937 54.6419L63.2182 54.1477ZM61.5416 52.7771L63.066 54.5574L63.4458 54.2322L61.9214 52.4519L61.5416 52.7771ZM70.0291 40.5684C68.7663 40.5595 67.3207 40.5492 66.0004 40.6224C64.6891 40.6951 63.4648 40.8514 62.6619 41.1928L62.8575 41.6529C63.572 41.3492 64.7171 41.1943 66.0281 41.1216C67.33 41.0494 68.7596 41.0595 70.0256 41.0684L70.0291 40.5684ZM72.5045 40.5481C71.8812 40.5814 71.0134 40.5754 70.0291 40.5684L70.0256 41.0684C71.0034 41.0753 71.8892 41.0817 72.5312 41.0474L72.5045 40.5481ZM73.0098 39.9852C73.0126 40.3111 72.774 40.5452 72.5154 40.5478L72.5203 41.0477C73.0898 41.0422 73.5145 40.5463 73.5098 39.981L73.0098 39.9852ZM72.5072 39.4345C72.7658 39.4319 73.0071 39.6598 73.0098 39.9852L73.5098 39.981C73.505 39.4149 73.0718 38.929 72.5023 38.9345L72.5072 39.4345ZM69.9393 39.4556C70.9184 39.462 71.8187 39.468 72.5168 39.4342L72.4926 38.9348C71.8113 38.9678 70.9268 38.9621 69.9425 38.9556L69.9393 39.4556ZM62.3953 40.119C63.2185 39.7757 64.434 39.602 65.7957 39.5195C67.1508 39.4375 68.6203 39.447 69.9393 39.4556L69.9425 38.9556C68.6269 38.947 67.1402 38.9372 65.7654 39.0204C64.3972 39.1033 63.1091 39.2795 62.2029 39.6575L62.3953 40.119ZM56.3012 42.2418L62.3813 40.1244L62.2169 39.6522L56.1368 41.7696L56.3012 42.2418ZM56.0141 42.9333C55.9245 42.6381 56.0708 42.3369 56.314 42.2369L56.1239 41.7745C55.6215 41.981 55.378 42.559 55.5357 43.0785L56.0141 42.9333ZM56.612 43.2977C56.3704 43.3658 56.1011 43.2241 56.0144 42.9343L55.5354 43.0775C55.6923 43.6024 56.2174 43.9286 56.7478 43.7789L56.612 43.2977ZM62.6776 41.1867L56.5977 43.3022L56.762 43.7744L62.8419 41.659L62.6776 41.1867ZM74.468 58.6843L68.9721 60.1997L69.105 60.6817L74.6009 59.1663L74.468 58.6843ZM75.6505 59.2303C75.4794 58.7672 74.9356 58.5561 74.4683 58.6842L74.6005 59.1664C74.8693 59.0927 75.1177 59.231 75.1815 59.4036L75.6505 59.2303ZM75.0279 60.3158C75.5068 60.1851 75.8324 59.7132 75.65 59.2288L75.1821 59.4051C75.2379 59.5534 75.157 59.7623 74.8963 59.8335L75.0279 60.3158ZM74.2299 60.5361C74.5211 60.4557 74.7907 60.3813 75.0286 60.3156L74.8956 59.8337C74.6576 59.8993 74.3881 59.9737 74.0969 60.0541L74.2299 60.5361ZM69.1994 61.9216C70.472 61.5735 72.6642 60.9683 74.2299 60.5361L74.0969 60.0541C72.5309 60.4864 70.3394 61.0914 69.0674 61.4393L69.1994 61.9216ZM62.0826 62.4224C63.2942 62.4316 64.6591 62.4421 65.9239 62.3831C67.1833 62.3243 68.3684 62.196 69.2117 61.9179L69.0551 61.443C68.2814 61.6982 67.155 61.8251 65.9006 61.8836C64.6517 61.9419 63.3007 61.9316 62.0864 61.9224L62.0826 62.4224ZM59.7384 62.4319C60.3708 62.4094 61.1829 62.4155 62.0826 62.4224L62.0864 61.9224C61.1907 61.9156 60.3662 61.9092 59.7205 61.9323L59.7384 62.4319ZM58.7732 61.5839C58.7759 62.0898 59.2431 62.434 59.7304 62.4321L59.7285 61.9321C59.4412 61.9332 59.274 61.7411 59.2732 61.5812L58.7732 61.5839ZM59.718 60.727C59.2282 60.7289 58.7705 61.0796 58.7732 61.5839L59.2732 61.5812C59.2723 61.4197 59.4351 61.2281 59.7199 61.227L59.718 60.727ZM59.4689 60.9755V60.977H59.9689V60.9755H59.4689ZM61.9893 60.7168C61.1025 60.7096 60.2991 60.7029 59.7093 60.7257L59.7286 61.2253C60.304 61.2031 61.0936 61.2095 61.9852 61.2168L61.9893 60.7168ZM68.6244 60.2956C67.9493 60.5219 66.8842 60.6349 65.674 60.6861C64.4714 60.737 63.1547 60.7263 61.9893 60.7168L61.9852 61.2168C63.1481 61.2263 64.4777 61.2372 65.6952 61.1857C66.9052 61.1344 68.0343 61.0208 68.7833 60.7697L68.6244 60.2956ZM68.9724 60.1997L68.6377 60.2916L68.77 60.7737L69.1048 60.6818L68.9724 60.1997Z" fill="#B49B72"/>
</svg>
