<svg width="141" height="92" viewBox="0 0 141 92" fill="none" xmlns="http://www.w3.org/2000/svg">
<path fill-rule="evenodd" clip-rule="evenodd" d="M37.6827 47.5186V49.5487H39.7565V50.5487H37.6827V52.5787H36.6827V50.5487H34.6093V49.5487H36.6827V47.5186H37.6827ZM105.183 58.4583V60.4884H107.256V61.4884H105.183V63.5185H104.183V61.4884H102.109V60.4884H104.183V58.4583H105.183ZM88.6125 22.5186L89.1125 22.0186H89.2173L89.7173 22.5186C89.7173 24.3512 90.4083 25.2313 91.0271 25.6723C91.3488 25.9015 91.6722 26.0268 91.9154 26.0943C92.0365 26.1279 92.1356 26.1467 92.2018 26.1568C92.2348 26.1619 92.2593 26.1648 92.274 26.1663L92.2883 26.1677L92.2872 26.1676L92.7565 26.6667V26.7693L92.2871 27.2679L92.2883 27.2683L92.274 27.2696C92.2593 27.2712 92.2348 27.274 92.2018 27.2791C92.1356 27.2893 92.0365 27.308 91.9154 27.3416C91.6722 27.4092 91.3488 27.5344 91.0271 27.7637C90.4083 28.2046 89.7173 29.0848 89.7173 30.9174L89.2173 31.4174H89.1125L88.6125 30.9174C88.6125 29.0848 87.9214 28.2046 87.3027 27.7637C86.9809 27.5344 86.6575 27.4092 86.4143 27.3416C86.2933 27.308 86.1941 27.2893 86.128 27.2791C86.0949 27.274 86.0704 27.2712 86.0557 27.2696L86.0414 27.2683L86.0425 27.2683L85.5732 26.7693V26.6667L86.0426 26.1681L86.0414 26.1677L86.0557 26.1663C86.0704 26.1648 86.0949 26.1619 86.128 26.1568C86.1941 26.1467 86.2933 26.1279 86.4143 26.0943C86.6575 26.0268 86.9809 25.9015 87.3027 25.6723C87.9214 25.2313 88.6125 24.3512 88.6125 22.5186ZM87.5151 26.718C87.636 26.7846 87.7594 26.8613 87.883 26.9493C88.3718 27.2977 88.8394 27.8085 89.1649 28.5437C89.4903 27.8085 89.9579 27.2977 90.4467 26.9493C90.5703 26.8613 90.6938 26.7846 90.8147 26.718C90.6938 26.6513 90.5703 26.5747 90.4467 26.4867C89.9579 26.1383 89.4903 25.6274 89.1649 24.8923C88.8394 25.6274 88.3718 26.1383 87.883 26.4867C87.7594 26.5747 87.636 26.6513 87.5151 26.718Z" fill="#B49B72"/>
<path d="M76.0827 48.6586C76.0827 45.916 73.8514 43.6848 71.1089 43.6848C64.5194 43.9348 64.5212 53.3834 71.1089 53.6324C73.8515 53.6324 76.0827 51.4011 76.0827 48.6586ZM71.1089 51.2714C69.6682 51.2714 68.4961 50.0993 68.4961 48.6586C68.6274 45.1971 73.5909 45.1981 73.7217 48.6586C73.7217 50.0993 72.5496 51.2714 71.1089 51.2714Z" fill="#B49B72"/>
<path d="M90.9799 44.0481C90.2667 41.8542 88.3182 40.3499 86.0155 40.2156L78.8829 39.8006L76.2842 33.1459C74.4837 28.4533 67.7336 28.4553 65.9343 33.1459L63.3356 39.8006L56.2029 40.2155C53.9003 40.3498 51.9517 41.8541 51.2385 44.048C50.5257 46.2413 51.2178 48.6039 53.0016 50.0668L58.5283 54.5953L56.7195 61.5066C56.1351 63.7379 56.9634 66.0562 58.8298 67.4124C60.6972 68.7686 63.158 68.8402 65.0995 67.5944L71.1092 63.7389L77.119 67.5945C79.0604 68.8402 81.5213 68.7687 83.3886 67.4125C85.2551 66.0563 86.0833 63.738 85.4989 61.5066L83.6901 54.5953L89.2168 50.0669C91.0007 48.6039 91.6927 46.2414 90.9799 44.0481ZM76.2507 64.2312L71.7461 61.3429C71.3578 61.0938 70.86 61.0938 70.4717 61.3429L65.9672 64.2312V58.6064C65.9672 57.1671 67.1399 55.9936 68.5801 55.9936H73.6379C75.0809 55.9936 76.2507 57.1614 76.2507 58.6064L76.2507 64.2312ZM87.72 48.2409L81.6083 53.2488C81.2514 53.5411 81.0976 54.0145 81.2144 54.4608L83.2148 62.1046C83.5511 63.3884 83.0746 64.7221 82.001 65.5022C80.9953 66.2325 79.6905 66.3151 78.6117 65.7352V58.6064C78.6117 55.8598 76.3893 53.6326 73.6378 53.6326H68.58C65.8347 53.6326 63.6061 55.8553 63.6061 58.6064V65.7355C62.5274 66.3151 61.223 66.2324 60.2174 65.5022C59.1438 64.7221 58.6673 63.3884 59.0036 62.1046L61.0041 54.4608C61.1208 54.0145 60.967 53.5411 60.6102 53.2488L54.4984 48.2409C52.2521 46.42 53.4543 42.7246 56.3402 42.5726L64.2283 42.1136C64.6889 42.0868 65.0916 41.7942 65.2595 41.3645L68.1336 34.0047C69.1689 31.3045 73.0502 31.3056 74.0848 34.0047L76.959 41.3645C77.1268 41.7942 77.5295 42.0868 77.9901 42.1136L85.8782 42.5726C88.7654 42.7249 89.9654 46.421 87.72 48.2409Z" fill="#B49B72"/>
</svg>
