<svg width="140" height="92" viewBox="0 0 140 92" fill="none" xmlns="http://www.w3.org/2000/svg">
<path fill-rule="evenodd" clip-rule="evenodd" d="M65.2567 13.5186V15.5487H67.3305V16.5487H65.2567V18.5787H64.2567V16.5487H62.1833V15.5487H64.2567V13.5186H65.2567ZM106.11 37.9584V39.9885H108.183V40.9885H106.11V43.0186H105.11V40.9885H103.036V39.9885H105.11V37.9584H106.11ZM42.0393 51.0185L42.5393 50.5185H42.6441L43.1441 51.0185C43.1441 52.8512 43.8351 53.7313 44.4539 54.1722C44.7756 54.4015 45.099 54.5268 45.3422 54.5943C45.4633 54.6279 45.5624 54.6467 45.6286 54.6568C45.6616 54.6619 45.6861 54.6648 45.7008 54.6663L45.7151 54.6677L45.714 54.6676L46.1833 55.1667V55.2693L45.7139 55.7678L45.7151 55.7683L45.7008 55.7696C45.6861 55.7711 45.6616 55.774 45.6286 55.7791C45.5624 55.7892 45.4633 55.808 45.3422 55.8416C45.099 55.9092 44.7756 56.0344 44.4539 56.2637C43.8351 56.7046 43.1441 57.5847 43.1441 59.4174L42.6441 59.9174H42.5393L42.0393 59.4174C42.0393 57.5847 41.3482 56.7046 40.7295 56.2637C40.4077 56.0344 40.0843 55.9092 39.8411 55.8416C39.7201 55.808 39.6209 55.7892 39.5547 55.7791C39.5217 55.774 39.4972 55.7711 39.4825 55.7696L39.4682 55.7683L39.4693 55.7683L39 55.2693V55.1667L39.4694 54.6681L39.4682 54.6677L39.4825 54.6663C39.4972 54.6648 39.5217 54.6619 39.5547 54.6568C39.6209 54.6467 39.7201 54.6279 39.8411 54.5943C40.0843 54.5268 40.4077 54.4015 40.7295 54.1722C41.3482 53.7313 42.0393 52.8512 42.0393 51.0185ZM40.9419 55.218C41.0628 55.2846 41.1862 55.3612 41.3098 55.4493C41.7986 55.7976 42.2662 56.3085 42.5917 57.0437C42.9171 56.3085 43.3847 55.7976 43.8735 55.4493C43.9971 55.3612 44.1206 55.2846 44.2415 55.218C44.1206 55.1513 43.9971 55.0747 43.8735 54.9866C43.3847 54.6383 42.9171 54.1274 42.5917 53.3922C42.2662 54.1274 41.7986 54.6383 41.3098 54.9866C41.1862 55.0747 41.0628 55.1513 40.9419 55.218Z" fill="#B49B72"/>
<path d="M87.1238 37.8563C83.6758 36.8319 81.3356 40.0678 80.1586 42.3368L80.1606 29.7949C80.1606 26.985 76.671 25.9446 74.8858 27.6686V25.9961C74.8858 25.043 74.43 24.1453 73.6651 23.5944C71.8202 22.2588 68.7131 23.3229 68.7131 25.9961V26.555C66.9395 24.821 63.4478 25.8733 63.4478 28.6911V30.3973C61.7001 28.6813 58.1826 29.7177 58.1826 32.5415V52.9403C58.1826 54.6822 58.9971 56.3883 60.5249 57.4723C61.1214 57.8944 61.4761 58.58 61.4761 59.3033V65.157C61.4761 66.4014 62.4867 67.4121 63.7312 67.4121H76.5104C77.7549 67.4121 78.7655 66.3995 78.7655 65.157V59.7989C78.7655 59.2956 78.926 58.8161 79.2173 58.4475C83.3034 53.2872 87.0525 42.8481 88.1051 39.7709C88.1051 39.7709 88.1051 39.7689 88.1071 39.7669C88.3667 38.9842 87.9462 38.1021 87.1238 37.8563ZM61.0478 56.7333C59.7736 55.8297 59.088 54.4009 59.088 52.9405L59.09 32.5416C59.09 31.4022 60.0174 30.4768 61.1568 30.4768C61.2658 30.4906 61.9455 30.3876 62.6014 30.8632C63.1404 31.2615 63.4496 31.8738 63.4496 32.5436V39.6975C63.4496 39.9472 63.6517 40.1513 63.9034 40.1513C64.153 40.1513 64.3571 39.9491 64.3571 39.6975V28.6937C64.3571 27.5543 65.2825 26.6269 66.422 26.6269C66.5488 26.6428 67.1829 26.5278 67.8686 27.0252C68.3818 27.3998 68.6989 28.0081 68.7148 28.6521V39.5214C68.7148 39.7711 68.9169 39.9752 69.1685 39.9752C69.4182 39.9752 69.6223 39.7731 69.6223 39.5214L69.6184 28.6405V25.997C69.6184 24.8576 70.5458 23.9321 71.6852 23.9321C71.7882 23.946 72.4521 23.839 73.1338 24.3324C73.6629 24.7129 73.978 25.3371 73.978 25.999V41.0712C73.978 41.3209 74.1801 41.525 74.4318 41.525C74.6814 41.525 74.8856 41.3229 74.8856 41.0712V29.7976C74.8856 28.6641 75.811 27.7427 76.9504 27.7427H77.1882C78.3276 27.7427 79.253 28.6641 79.253 29.7976V44.3347C77.753 45.0679 74.0177 47.3527 73.2406 52.1876C73.1474 52.7781 74.0392 52.9307 74.1362 52.3303C74.8913 47.624 78.7316 45.5569 79.891 45.0359C80.0674 44.9566 80.1665 44.7763 80.1546 44.594C80.327 44.1105 83.1835 37.0186 87.1835 39.0186C85.6835 45.0359 82.379 52.8596 78.6835 57.5186C78.3149 57.9862 77.6835 58.9241 77.6835 59.5186V64.0186C77.6835 66.5186 77.0518 66.5294 75.5759 66.5285C72.9323 66.5268 66.039 66.5333 63.5723 66.5256C63.0634 66.524 62.6675 66.1342 62.6464 65.6258L62.3837 59.3058C62.3837 58.2853 61.8841 57.3258 61.0478 56.7333Z" fill="#B49B72" stroke="#B49B72" stroke-width="1.25"/>
<path d="M72.0971 45.5334C72.3013 45.6781 72.5846 45.6305 72.7293 45.4244C72.8739 45.2203 72.8244 44.9369 72.6223 44.7923C67.1887 40.9526 63.1211 43.5234 61.8519 44.5057C61.653 44.6596 61.6327 44.9484 61.7957 45.14V45.14C61.9567 45.3293 62.2378 45.3504 62.4349 45.1988C63.6031 44.3004 67.2033 42.0739 72.0971 45.5334Z" fill="#B49B72" stroke="#B49B72" stroke-width="1.25"/>
<path d="M68.8951 48.1956C68.7306 48.4077 64.9239 53.4827 68.5839 60.8643C68.8495 61.3974 69.662 61.0011 69.3964 60.4621C65.986 53.5821 69.4618 48.9429 69.6105 48.7506C69.763 48.5525 69.7274 48.2691 69.5292 48.1145C69.335 47.96 69.0476 47.9955 68.8951 48.1956Z" fill="#B49B72" stroke="#B49B72" stroke-width="1.25"/>
</svg>
