<svg width="141" height="92" viewBox="0 0 141 92" fill="none" xmlns="http://www.w3.org/2000/svg">
<path fill-rule="evenodd" clip-rule="evenodd" d="M41.7296 47.825V49.8552H43.8034V50.8552H41.7296V52.8852H40.7296V50.8552H38.6562V49.8552H40.7296V47.825H41.7296ZM88.0833 65.4583V67.4884H90.1562V68.4884H88.0833V70.5185H87.0833V68.4884H85.0091V67.4884H87.0833V65.4583H88.0833ZM93.1955 25.0186L93.6955 24.5186H93.8003L94.3003 25.0186C94.3003 26.8512 94.9913 27.7313 95.6101 28.1723C95.9319 28.4015 96.2553 28.5268 96.4985 28.5943C96.6195 28.6279 96.7187 28.6467 96.7848 28.6568C96.8178 28.6619 96.8424 28.6648 96.8571 28.6663L96.8714 28.6677L96.8703 28.6676L97.3396 29.1667V29.2693L96.8702 29.7679L96.8714 29.7683L96.8571 29.7696C96.8424 29.7712 96.8178 29.774 96.7848 29.7791C96.7187 29.7893 96.6195 29.808 96.4985 29.8416C96.2553 29.9092 95.9319 30.0344 95.6101 30.2637C94.9913 30.7046 94.3003 31.5848 94.3003 33.4174L93.8003 33.9174H93.6955L93.1955 33.4174C93.1955 31.5848 92.5045 30.7046 91.8857 30.2637C91.564 30.0344 91.2406 29.9092 90.9973 29.8416C90.8763 29.808 90.7772 29.7893 90.711 29.7791C90.678 29.774 90.6534 29.7712 90.6388 29.7696L90.6244 29.7683L90.6256 29.7683L90.1562 29.2693V29.1667L90.6257 28.6681L90.6244 28.6677L90.6388 28.6663C90.6534 28.6648 90.678 28.6619 90.711 28.6568C90.7772 28.6467 90.8763 28.6279 90.9973 28.5943C91.2406 28.5268 91.564 28.4015 91.8857 28.1723C92.5045 27.7313 93.1955 26.8512 93.1955 25.0186ZM92.0981 29.218C92.219 29.2846 92.3425 29.3613 92.466 29.4493C92.9549 29.7977 93.4225 30.3085 93.7479 31.0437C94.0734 30.3085 94.5409 29.7977 95.0298 29.4493C95.1534 29.3613 95.2768 29.2846 95.3977 29.218C95.2768 29.1513 95.1534 29.0747 95.0298 28.9867C94.5409 28.6383 94.0734 28.1274 93.7479 27.3923C93.4225 28.1274 92.9549 28.6383 92.466 28.9867C92.3425 29.0747 92.219 29.1513 92.0981 29.218Z" fill="#B49B72"/>
<path d="M79.804 37.4243C79.6707 37.4243 76.4998 37.4526 74.099 39.9135C73.3241 40.7078 72.7129 41.5345 72.1741 42.2646C71.498 43.1804 71.009 43.811 70.5345 44.1135C70.1242 43.8131 69.6905 43.5458 69.2332 43.313C70.4226 42.1893 71.1554 40.6021 71.1554 38.8126C71.1554 35.3855 68.3271 32.5496 64.8502 32.5496C61.4141 32.5496 58.7233 35.353 58.7233 38.8064H61.486C61.486 36.7343 62.964 35.3123 64.8502 35.3123C66.8035 35.3123 68.3886 36.8849 68.3886 38.7891C68.3886 40.7582 66.914 42.266 64.8419 42.266V45.0286C68.986 45.0286 71.7445 48.1429 71.7445 52.1184C71.7445 56.6299 68.9003 59.5397 64.4945 59.5397C60.2932 59.5397 57.2452 56.0725 57.2452 51.9285H54.4825C54.4825 58.1445 58.7875 62.3024 64.4973 62.3024C70.4875 62.3024 74.5121 58.2101 74.5121 52.1156C74.5121 49.8185 73.7703 47.7361 72.5236 46.0785C73.2329 45.4797 73.8193 44.6861 74.396 43.9056C74.9064 43.2149 75.4341 42.5015 76.0771 41.8426C77.6443 40.2347 79.7923 40.187 79.804 40.187C83.1455 40.187 84.8936 42.9497 84.8936 45.6786C84.8936 48.4544 82.8064 50.5471 80.0374 50.5471V53.3098C84.31 53.3098 87.6563 49.9573 87.6563 45.6786C87.6563 41.6775 84.9046 37.4243 79.804 37.4243Z" fill="#B49B72" stroke="#B49B72" stroke-width="0.25"/>
<path d="M78.6561 36.043C82.4645 36.043 85.5629 32.9446 85.5629 29.1362H82.8002C82.8002 31.4217 80.9416 33.2803 78.6561 33.2803C76.3707 33.2803 74.5121 31.4217 74.5121 29.1362H71.7494C71.7494 32.9446 74.8477 36.043 78.6561 36.043Z" fill="#B49B72" stroke="#B49B72" stroke-width="0.25"/>
<path d="M78.6561 30.5176C79.419 30.5176 80.0375 29.8991 80.0375 29.1362C80.0375 28.3733 79.419 27.7549 78.6561 27.7549C77.8932 27.7549 77.2748 28.3733 77.2748 29.1362C77.2748 29.8991 77.8932 30.5176 78.6561 30.5176Z" fill="#B49B72" stroke="#B49B72" stroke-width="0.25"/>
</svg>
